<svg xmlns="http://www.w3.org/2000/svg" viewBox="0 0 383.6 60.0" width="383.6" height="60.0">
  <path d="M700 708V688Q670 683 654.0 669.0Q638 655 632.5 626.0Q627 597 627 544V-1Q614 1 599.0 1.0Q584 1 567 -1L128 516V180Q128 119 134.0 86.5Q140 54 161.0 40.0Q182 26 227 20V0Q208 2 176.5 2.5Q145 3 117 3Q95 3 71.5 2.5Q48 2 32 0V20Q64 26 79.5 39.5Q95 53 100.0 82.5Q105 112 105 164V602Q105 639 100.0 656.5Q95 674 79.0 680.5Q63 687 32 688V708Q48 707 71.5 706.0Q95 705 117 705Q142 705 165.0 706.0Q188 707 207 708L604 254V528Q604 589 598.5 621.5Q593 654 572.5 668.5Q552 683 505 688V708Q525 707 556.5 706.0Q588 705 615 705Q639 705 662.0 706.0Q685 707 700 708Z" fill="#FFFFFF" transform="translate(0.00,45.60) scale(0.060000,-0.060000)"/>
  <path d="M535 529V109Q535 64 548.5 42.5Q562 21 595 21V0Q564 3 533 3Q487 3 447.5 0.0Q408 -3 373 -11V70Q349 25 307.5 5.5Q266 -14 213 -14Q169 -14 142.5 -3.0Q116 8 102 26Q86 44 79.0 74.5Q72 105 72 155V409Q72 454 59.0 475.5Q46 497 12 497V518Q44 515 74 515Q120 515 160.0 518.5Q200 522 234 529V107Q234 84 239.0 68.0Q244 52 256.0 43.0Q268 34 288 34Q311 34 330.0 46.0Q349 58 361.0 79.5Q373 101 373 128V409Q373 454 360.0 475.5Q347 497 313 497V518Q345 515 375 515Q421 515 461.0 518.5Q501 522 535 529Z" fill="#FFFFFF" transform="translate(43.62,45.60) scale(0.060000,-0.060000)"/>
  <path d="M377 532Q411 532 431.0 517.5Q451 503 460.0 480.5Q469 458 469 436Q469 395 445.5 370.0Q422 345 384 345Q344 345 323.0 363.5Q302 382 302 413Q302 444 315.5 464.0Q329 484 349 498Q334 500 320 494Q304 490 290.0 479.0Q276 468 266.0 453.0Q256 438 250.5 420.5Q245 403 245 385V103Q245 55 266.5 38.0Q288 21 335 21V0Q312 1 267.0 2.5Q222 4 174 4Q131 4 87.5 2.5Q44 1 23 0V21Q56 21 69.5 36.0Q83 51 83 93V409Q83 454 70.0 475.5Q57 497 23 497V518Q55 515 85 515Q130 515 170.5 518.5Q211 522 245 529V447Q257 473 276.5 492.0Q296 511 321.5 521.5Q347 532 377 532Z" fill="#FFFFFF" transform="translate(80.46,45.60) scale(0.060000,-0.060000)"/>
  <path d="M159 -7Q113 -7 83.0 10.5Q53 28 39.0 57.0Q25 86 25 119Q25 161 44.5 188.0Q64 215 95.0 231.5Q126 248 160.0 259.0Q194 270 225.0 280.5Q256 291 275.0 305.5Q294 320 294 343V426Q294 448 287.5 467.5Q281 487 264.5 499.5Q248 512 219 512Q201 512 184.0 507.0Q167 502 154 491Q186 480 201.5 458.0Q217 436 217 409Q217 372 191.5 350.5Q166 329 131 329Q93 329 72.5 353.0Q52 377 52 411Q52 441 67.0 461.5Q82 482 111 499Q140 516 181.0 524.0Q222 532 268 532Q315 532 354.5 522.5Q394 513 422 485Q444 462 450.0 429.0Q456 396 456 345V75Q456 50 460.5 40.5Q465 31 475 31Q484 31 492.0 36.0Q500 41 508 47L519 30Q497 12 467.0 2.5Q437 -7 402 -7Q362 -7 339.5 3.5Q317 14 307.5 32.0Q298 50 297 72Q275 36 242.0 14.5Q209 -7 159 -7ZM242 65Q258 65 270.5 71.5Q283 78 294 94V302Q286 288 272.5 275.5Q259 263 244.0 250.5Q229 238 215.5 223.0Q202 208 193.5 187.5Q185 167 185 138Q185 99 201.0 82.0Q217 65 242 65Z" fill="#FFFFFF" transform="translate(108.90,45.60) scale(0.060000,-0.060000)"/>
  <path d="M526 782V110Q526 65 539.5 43.5Q553 22 586 22V1Q555 4 524 4Q479 4 439.0 1.0Q399 -2 364 -10V662Q364 707 351.5 728.5Q339 750 304 750V771Q336 768 366 768Q412 768 452.0 771.5Q492 775 526 782ZM257 532Q301 532 333.0 519.5Q365 507 386 478L374 468Q361 485 342.5 493.0Q324 501 304 501Q256 501 229.5 441.5Q203 382 203 259Q203 173 213.5 123.5Q224 74 242.5 54.0Q261 34 284 34Q315 34 339.5 57.5Q364 81 365 120L368 78Q350 32 318.5 9.0Q287 -14 238 -14Q180 -14 133.5 15.0Q87 44 60.5 104.5Q34 165 34 262Q34 353 62.5 412.5Q91 472 141.5 502.0Q192 532 257 532Z" fill="#FFFFFF" transform="translate(140.34,45.60) scale(0.060000,-0.060000)"/>
  <path d="M157 779Q204 779 230.5 758.0Q257 737 257 697Q257 657 230.5 636.0Q204 615 157 615Q110 615 83.5 636.0Q57 657 57 697Q57 737 83.5 758.0Q110 779 157 779ZM245 529V93Q245 51 258.5 36.0Q272 21 305 21V0Q285 1 246.0 2.5Q207 4 167 4Q127 4 85.5 2.5Q44 1 23 0V21Q56 21 69.5 36.0Q83 51 83 93V409Q83 454 70.0 475.5Q57 497 23 497V518Q55 515 85 515Q130 515 170.5 518.5Q211 522 245 529Z" fill="#FFFFFF" transform="translate(176.52,45.60) scale(0.060000,-0.060000)"/>
  <path d="M457 0V20Q488 22 503.5 28.0Q519 34 524.5 52.0Q530 70 530 106V602Q530 639 524.5 656.5Q519 674 503.5 680.5Q488 687 457 688V708Q486 707 532.0 706.0Q578 705 624 705Q673 705 715.5 706.0Q758 707 784 708V688Q753 687 737.0 680.5Q721 674 716.0 656.5Q711 639 711 602V106Q711 70 716.5 52.0Q722 34 737.5 28.0Q753 22 784 20V0Q758 2 715.5 2.5Q673 3 624 3Q578 3 532.0 2.5Q486 2 457 0ZM31 0V20Q62 22 77.5 28.0Q93 34 98.5 52.0Q104 70 104 106V602Q104 639 98.5 656.5Q93 674 77.5 680.5Q62 687 31 688V708Q58 707 103.0 706.0Q148 705 199 705Q243 705 286.5 706.0Q330 707 358 708V688Q327 687 311.0 680.5Q295 674 290.0 656.5Q285 639 285 602V106Q285 70 290.5 52.0Q296 34 311.5 28.0Q327 22 358 20V0Q330 2 286.5 2.5Q243 3 199 3Q148 3 103.0 2.5Q58 2 31 0ZM210 346V366H605V346Z" fill="#FFFFFF" transform="translate(195.90,45.60) scale(0.060000,-0.060000)"/>
  <path d="M285 532Q373 532 423.0 480.0Q473 428 473 309H152L151 328H337Q339 377 333.0 418.5Q327 460 313.5 485.0Q300 510 278 510Q248 510 227.0 467.0Q206 424 201 321L205 314Q203 303 203.0 291.5Q203 280 203 267Q203 198 221.5 157.0Q240 116 268.0 99.0Q296 82 326 82Q343 82 364.0 87.0Q385 92 408.0 108.0Q431 124 452 155L469 149Q458 110 431.5 72.5Q405 35 364.0 10.5Q323 -14 265 -14Q199 -14 147.0 13.5Q95 41 64.5 100.5Q34 160 34 256Q34 351 67.0 412.0Q100 473 157.0 502.5Q214 532 285 532Z" fill="#FFFFFF" transform="translate(244.80,45.60) scale(0.060000,-0.060000)"/>
  <path d="M159 -7Q113 -7 83.0 10.5Q53 28 39.0 57.0Q25 86 25 119Q25 161 44.5 188.0Q64 215 95.0 231.5Q126 248 160.0 259.0Q194 270 225.0 280.5Q256 291 275.0 305.5Q294 320 294 343V426Q294 448 287.5 467.5Q281 487 264.5 499.5Q248 512 219 512Q201 512 184.0 507.0Q167 502 154 491Q186 480 201.5 458.0Q217 436 217 409Q217 372 191.5 350.5Q166 329 131 329Q93 329 72.5 353.0Q52 377 52 411Q52 441 67.0 461.5Q82 482 111 499Q140 516 181.0 524.0Q222 532 268 532Q315 532 354.5 522.5Q394 513 422 485Q444 462 450.0 429.0Q456 396 456 345V75Q456 50 460.5 40.5Q465 31 475 31Q484 31 492.0 36.0Q500 41 508 47L519 30Q497 12 467.0 2.5Q437 -7 402 -7Q362 -7 339.5 3.5Q317 14 307.5 32.0Q298 50 297 72Q275 36 242.0 14.5Q209 -7 159 -7ZM242 65Q258 65 270.5 71.5Q283 78 294 94V302Q286 288 272.5 275.5Q259 263 244.0 250.5Q229 238 215.5 223.0Q202 208 193.5 187.5Q185 167 185 138Q185 99 201.0 82.0Q217 65 242 65Z" fill="#FFFFFF" transform="translate(275.04,45.60) scale(0.060000,-0.060000)"/>
  <path d="M241 782V93Q241 51 254.5 36.0Q268 21 301 21V0Q282 1 243.0 2.5Q204 4 163 4Q123 4 81.5 2.5Q40 1 19 0V21Q52 21 65.5 36.0Q79 51 79 93V663Q79 707 66.5 728.5Q54 750 19 750V771Q51 768 81 768Q127 768 167.0 771.5Q207 775 241 782Z" fill="#FFFFFF" transform="translate(306.48,45.60) scale(0.060000,-0.060000)"/>
  <path d="M240 681V518H348V498H240V89Q240 64 249.0 53.5Q258 43 276 43Q291 43 307.5 53.0Q324 63 338 87L354 77Q335 36 301.5 11.0Q268 -14 214 -14Q181 -14 155.5 -5.5Q130 3 113 20Q91 42 84.5 74.5Q78 107 78 159V498H-2V518H78V643Q125 643 164.5 652.0Q204 661 240 681Z" fill="#FFFFFF" transform="translate(325.68,45.60) scale(0.060000,-0.060000)"/>
  <path d="M240 782V448Q265 494 306.5 513.0Q348 532 402 532Q446 532 472.5 521.0Q499 510 513 493Q529 474 536.0 444.0Q543 414 543 363V93Q543 51 556.5 36.0Q570 21 603 21V0Q584 1 544.5 2.5Q505 4 467 4Q427 4 389.0 2.5Q351 1 331 0V21Q359 21 370.0 36.0Q381 51 381 93V411Q381 434 376.0 450.5Q371 467 359.5 475.5Q348 484 326 484Q303 484 283.5 472.5Q264 461 252.0 439.5Q240 418 240 390V93Q240 51 251.5 36.0Q263 21 290 21V0Q272 1 236.0 2.5Q200 4 162 4Q122 4 80.5 2.5Q39 1 18 0V21Q51 21 64.5 36.0Q78 51 78 93V662Q78 707 65.5 728.5Q53 750 18 750V771Q50 768 80 768Q126 768 166.0 771.5Q206 775 240 782Z" fill="#FFFFFF" transform="translate(346.74,45.60) scale(0.060000,-0.060000)"/>
</svg>